<svg xmlns="http://www.w3.org/2000/svg" viewBox="0 0 464 240"><title>logo-truck</title><path d="M264,120h40V64L232,48,184,0H48L0,48v64l32,8H264Z" fill="#ed1c24"/><path d="M247,96h57v24H247Z" fill="#333"/><path d="M224,48H112v72H224Z" fill="#ed1c24"/><path d="M56,208H8V152H336v56H56Z" fill="#0378a3"/><path d="M432,208h32V129.8a8.4,8.4,0,0,0-.4-2.7l-23.4-81a8.1,8.1,0,0,0-7.6-6.1H344a8.5,8.5,0,0,0-8,8.8V208h32" fill="#29485a"/><path d="M447.7,72H368v48h93.6Z" fill="#29abe2"/><circle cx="88" cy="208" r="32" fill="#1a1a1a"/><circle cx="64" cy="120" r="32" fill="#1a1a1a"/><circle cx="232" cy="120" r="32" fill="#1a1a1a"/><circle cx="184" cy="208" r="32" fill="#1a1a1a"/><circle cx="400" cy="208" r="32" fill="#1a1a1a"/><path d="M432,144h32v24H432Z" fill="#f2f2f2"/><path d="M0,48H112V0H48Z" fill="#333"/><path d="M136,64h8V80h-8Z" fill="#ccc"/><path d="M112,48H232L184,0H112Z" fill="#06aae9"/></svg>